<?xml version="1.0" encoding="UTF-8"?>
<svg width="1200pt" height="1200pt" version="1.1" viewBox="0 0 1200 1200" xmlns="http://www.w3.org/2000/svg">
 <path d="m108.47 176.06h983.16c31.453 0 57.141 25.688 57.141 57.141v76.922l-1097.5-0.046875v-76.922c0-31.453 25.688-57.141 57.141-57.141zm552.74 281.86c6.1406-14.531 22.922-21.234 37.453-15.141 14.531 6.1406 21.234 22.922 15.141 37.453l-174.71 407.29c-6.1406 14.531-22.922 21.234-37.453 15.141-14.531-6.1406-21.234-22.922-15.141-37.453zm-216.52 316.45c12.703 9.2344 15.609 27.141 6.375 39.844-9.2344 12.703-27.141 15.609-39.844 6.375l-172.22-124.69c-16.078-11.625-15.234-35.391 0.46875-46.547l171.71-124.31c12.703-9.2344 30.609-6.375 39.844 6.375 9.2344 12.703 6.375 30.609-6.375 39.844l-140.29 101.53 140.29 101.53zm310.6-203.16c-12.703-9.2344-15.609-27.141-6.375-39.844 9.2344-12.703 27.141-15.609 39.844-6.375l172.22 124.69c16.078 11.625 15.234 35.391-0.46875 46.547l-171.71 124.31c-12.703 9.2344-30.609 6.375-39.844-6.375-9.2344-12.703-6.375-30.609 6.375-39.844l140.29-101.53-140.29-101.53zm276.24-333.84h-331.31c-6.375 0-11.391 5.1562-11.391 11.391s5.1562 11.391 11.391 11.391h331.31c6.375 0 11.391-5.1562 11.391-11.391s-5.1562-11.391-11.391-11.391zm-637.22-11.906c-12.844 0-23.391 10.453-23.391 23.391s10.453 23.391 23.391 23.391 23.391-10.453 23.391-23.391-10.453-23.391-23.391-23.391zm-101.25 0c-12.844 0-23.391 10.453-23.391 23.391s10.453 23.391 23.391 23.391 23.391-10.453 23.391-23.391-10.453-23.391-23.391-23.391zm-101.3 0c-12.844 0-23.391 10.453-23.391 23.391s10.453 23.391 23.391 23.391 23.391-10.453 23.391-23.391-10.453-23.391-23.391-23.391zm957 107.53h-1097.5v633.71c0 31.453 25.688 57.141 57.141 57.141h983.16c31.453 0 57.141-25.688 57.141-57.141l-0.046875-633.71z" fill-rule="evenodd"/>
</svg>
